<svg width="85" height="85" viewBox="0 0 85 85" fill="none" xmlns="http://www.w3.org/2000/svg">
<g clip-path="url(#clip0_2_498)">
<path d="M40.0338 17.1679V19.9701C41.0576 19.9689 42.0716 20.1695 43.0178 20.5604C43.964 20.9514 44.8239 21.525 45.5483 22.2485C46.2726 22.972 46.8473 23.8312 47.2394 24.7769C47.6314 25.7227 47.8332 26.7364 47.8332 27.7602H53.4376C53.4352 24.2069 52.0219 20.8 49.5084 18.2883C46.995 15.7766 43.5871 14.3657 40.0338 14.3657V17.1679ZM29.4321 27.7602H32.2343C32.2343 26.7364 32.4361 25.7227 32.8282 24.7769C33.2203 23.8312 33.7949 22.972 34.5193 22.2485C35.2437 21.525 36.1036 20.9514 37.0498 20.5604C37.996 20.1695 39.01 19.9689 40.0338 19.9701V14.3657C36.4805 14.3657 33.0726 15.7766 30.5591 18.2883C28.0457 20.8 26.6324 24.2069 26.6299 27.7602H29.4321ZM40.0338 38.3619V35.5597C37.9652 35.5597 35.9814 34.738 34.5187 33.2753C33.0561 31.8126 32.2343 29.8288 32.2343 27.7602H26.6299C26.6299 31.3152 28.0421 34.7245 30.5558 37.2382C33.0695 39.7519 36.4789 41.1641 40.0338 41.1641V38.3619ZM50.6354 27.7602H47.8332C47.8332 29.8288 47.0115 31.8126 45.5488 33.2753C44.0862 34.738 42.1023 35.5597 40.0338 35.5597V41.1641C43.5887 41.1641 46.998 39.7519 49.5117 37.2382C52.0254 34.7245 53.4376 31.3152 53.4376 27.7602H50.6354Z" fill="white"/>
<path d="M40.0342 46.311V49.1132C46.4886 49.1132 51.682 51.1494 54.176 53.6527L56.1656 51.6725L58.1458 49.7016C54.2601 45.7972 47.3947 43.5088 40.0342 43.5088V46.311ZM49.5057 66.0198L48.5716 63.367C45.7991 64.2787 42.8967 64.733 39.9782 64.7121V70.3165C43.532 70.3467 47.0665 69.7913 50.4397 68.6725L49.5057 66.0198ZM21.4837 56.9126H24.2859C24.2859 55.4275 25.3694 53.5313 28.3024 51.85C31.9199 49.9638 35.9555 49.0224 40.0342 49.1132V43.5088C34.9819 43.4126 29.9887 44.6087 25.5282 46.9835C21.7919 49.1412 18.6815 52.5879 18.6815 56.9126H21.4837ZM40.0342 67.5143V64.7121C35.9555 64.8028 31.9199 63.8614 28.3024 61.9753C25.3694 60.294 24.2859 58.3978 24.2859 56.9126H18.6815C18.6815 61.2747 21.7546 64.6841 25.5282 66.8418C29.9903 69.2123 34.9824 70.4081 40.0342 70.3165V67.5143ZM54.176 53.6527C54.4319 53.9286 54.7407 54.1501 55.0841 54.3041C55.4275 54.458 55.7983 54.5412 56.1745 54.5487C56.5507 54.5563 56.9246 54.4879 57.2739 54.3478C57.6231 54.2077 57.9405 53.9987 58.2072 53.7332C58.4739 53.4678 58.6845 53.1513 58.8262 52.8028C58.968 52.4542 59.0381 52.0806 59.0323 51.7044C59.0266 51.3281 58.9451 50.9569 58.7928 50.6128C58.6405 50.2687 58.4204 49.9588 58.1458 49.7016L56.1656 51.6725L54.176 53.6527ZM50.4397 68.6725C51.1302 68.4233 51.6953 67.9132 52.0136 67.2517C52.3319 66.5902 52.3779 65.8302 52.1417 65.1352C51.9056 64.4401 51.4061 63.8655 50.7507 63.5349C50.0953 63.2042 49.271 63.144 48.5716 63.367L49.5057 66.0198L50.4397 68.6725Z" fill="white"/>
<path d="M58.5844 63.5164L60.7701 65.2631L66.0663 58.6406L63.8806 56.8939L61.6949 55.1378L55.3432 64.5159L56.6042 65.4966L58.5844 63.5164ZM55.9317 60.8637L53.9515 62.8532V62.8999V62.9466L54.1289 63.1241L54.213 63.2082C54.3905 63.3856 54.1289 63.1241 54.3064 63.2922L54.3811 63.3763V63.423C54.3811 63.423 54.3811 63.423 54.3811 63.4697C54.3811 63.5164 54.2971 63.3763 54.4559 63.5444L54.5399 63.6191V63.6659C54.6427 63.7593 54.4652 63.5911 54.5399 63.6659L54.6147 63.7406L54.6987 63.8153L54.7734 63.89C54.9042 64.0301 54.7081 63.834 54.8482 63.9741L54.9976 64.1235H55.091L55.1658 64.1983C55.3059 64.3477 55.0537 64.0955 55.1658 64.1983C55.2872 64.3197 55.0723 64.0955 55.1658 64.1983C55.1658 64.245 55.1658 64.1983 55.1658 64.245C55.1658 64.2917 55.1658 64.245 55.1658 64.2917C55.1658 64.3384 55.1658 64.2356 55.1658 64.2917L55.2498 64.3757L55.3432 64.4691C55.3993 64.5159 55.3432 64.4692 55.3432 64.5159L57.3328 62.5356L59.313 60.5554V60.5087C59.257 60.4527 59.313 60.5087 59.313 60.462L59.2663 60.4153L59.0888 60.2285L58.7526 59.8922L58.6685 59.8082L58.5938 59.7334L58.8764 59.6367L58.5938 59.4766C58.4443 59.3271 58.9523 59.8735 58.8029 59.7334L58.8764 59.5746L57.118 58.2576L55.9317 60.8637ZM66.0663 58.6406C66.5036 58.0585 66.6972 57.3291 66.606 56.6068C66.5149 55.8844 66.1462 55.2259 65.5781 54.7707C65.01 54.3155 64.2869 54.0992 63.5621 54.1677C62.8373 54.2362 62.1676 54.5842 61.6949 55.1378L63.8806 56.8939L66.0663 58.6406ZM58.5938 63.5164L56.6042 65.4966C56.8831 65.7761 57.2179 65.9935 57.5867 66.1345C57.9555 66.2755 58.3499 66.3371 58.7442 66.315C59.1384 66.293 59.5235 66.1878 59.8742 66.0066C60.225 65.8253 60.5335 65.5719 60.7795 65.2631L58.5938 63.5164ZM57.9213 58.8461C57.6606 58.586 57.3513 58.3799 57.0109 58.2394C56.6706 58.0989 56.3059 58.0268 55.9377 58.0272C55.5695 58.0276 55.205 58.1006 54.865 58.2419C54.525 58.3832 54.2162 58.5901 53.9561 58.8507C53.6961 59.1114 53.4899 59.4207 53.3494 59.7611C53.2089 60.1014 53.1368 60.4661 53.1373 60.8343C53.1377 61.2025 53.2107 61.567 53.352 61.907C53.4933 62.247 53.6908 62.6866 53.9515 62.9466L55.9317 60.8637L57.9213 58.8461Z" fill="white"/>
<path d="M50.4397 82.1976V84.9998C57.8469 84.9998 63.6848 84.9999 68.187 84.3927C72.6892 83.7856 76.5936 82.4592 79.4798 79.5262L77.5276 77.5273L75.5474 75.5471C73.8287 77.2658 71.4842 78.2839 67.4677 78.8163C63.4513 79.3488 57.987 79.3768 50.421 79.3768L50.4397 82.1976ZM82.198 50.4394H79.3958C79.3958 58.0053 79.3958 63.3949 78.8353 67.4861C78.2749 71.5773 77.2848 73.8471 75.5661 75.5658L77.5276 77.5273L79.5078 79.5075C82.4408 76.5746 83.7485 72.857 84.3743 68.2147C85.0002 63.5724 85.0002 57.8465 85.0002 50.4394H82.198ZM50.4397 79.3955C49.6965 79.3955 48.9838 79.6907 48.4583 80.2162C47.9327 80.7417 47.6375 81.4545 47.6375 82.1976C47.6375 82.9408 47.9327 83.6536 48.4583 84.1791C48.9838 84.7046 49.6965 84.9998 50.4397 84.9998V79.3955ZM85.0002 50.4394C85.0002 49.6962 84.7049 48.9835 84.1794 48.4579C83.6539 47.9324 82.9411 47.6372 82.198 47.6372C81.4548 47.6372 80.742 47.9324 80.2165 48.4579C79.691 48.9835 79.3958 49.6962 79.3958 50.4394H85.0002Z" fill="white"/>
<path d="M2.8022 50.4394H0C0 57.8465 1.44754e-06 63.6845 0.607144 68.2334C1.21429 72.7823 2.54066 76.5933 5.47363 79.5262L7.47253 77.5273L9.45275 75.5471C7.73407 73.8284 6.71593 71.4839 6.18352 67.4674C5.6511 63.4509 5.6044 58.0053 5.6044 50.4394H2.8022ZM34.5604 82.1976V79.3954C26.9945 79.3954 21.6049 79.3954 17.5137 78.835C13.4225 78.2746 11.1527 77.2845 9.43407 75.5658L7.47253 77.5273L5.49231 79.5075C8.40659 82.4592 12.1429 83.7669 16.8132 84.3927C21.4835 85.0185 27.2 84.9998 34.5604 84.9998V82.1976ZM5.6044 50.4394C5.6044 49.6962 5.30916 48.9835 4.78365 48.4579C4.25814 47.9324 3.54539 47.6372 2.8022 47.6372C2.05901 47.6372 1.34626 47.9324 0.820746 48.4579C0.295232 48.9835 0 49.6962 0 50.4394H5.6044ZM34.5604 84.9998C35.3036 84.9998 36.0164 84.7046 36.5419 84.1791C37.0674 83.6536 37.3626 82.9408 37.3626 82.1976C37.3626 81.4545 37.0674 80.7417 36.5419 80.2162C36.0164 79.6907 35.3036 79.3954 34.5604 79.3954V84.9998Z" fill="white"/>
<path d="M2.80226 34.5604H5.60445C5.60445 26.9945 5.60445 21.6049 6.16489 17.5137C6.72533 13.4225 7.71544 11.1527 9.43412 9.43407L7.47259 7.47253L5.49237 5.49231C2.54072 8.40659 1.23303 12.1429 0.607204 16.8132C-0.0186206 21.4835 5.92811e-05 27.1533 5.92811e-05 34.5604H2.80226ZM34.5605 2.8022V0C27.1534 0 21.3154 1.44754e-06 16.8132 0.607144C12.311 1.21429 8.40665 2.54066 5.52039 5.47363L7.47259 7.47253L9.43412 9.43407C11.1528 7.71538 13.4973 6.69725 17.5138 6.16483C21.5303 5.63242 26.9946 5.6044 34.5605 5.6044V2.8022ZM5.92811e-05 34.5604C5.92811e-05 35.3036 0.295291 36.0164 0.820805 36.5419C1.34632 37.0674 2.05907 37.3626 2.80226 37.3626C3.54545 37.3626 4.25819 37.0674 4.78371 36.5419C5.30922 36.0164 5.60445 35.3036 5.60445 34.5604H5.92811e-05ZM34.5605 5.6044C35.3037 5.6044 36.0164 5.30917 36.542 4.78365C37.0675 4.25814 37.3627 3.54539 37.3627 2.8022C37.3627 2.05901 37.0675 1.34626 36.542 0.820743C36.0164 0.295229 35.3037 0 34.5605 0V5.6044Z" fill="white"/>
<path d="M82.198 34.5604H85.0002C85.0002 27.1533 85.0002 21.3154 84.393 16.8132C83.7859 12.311 82.4595 8.4066 79.5265 5.52033L77.5276 7.47253L75.5661 9.43407C77.2848 11.1527 78.3029 13.4973 78.8353 17.5137C79.3677 21.5302 79.3958 26.9945 79.3958 34.5604H82.198ZM50.4397 2.8022V5.6044C58.0056 5.6044 63.3952 5.60439 67.4864 6.16483C71.5776 6.72527 73.8474 7.71538 75.5661 9.43407L77.5276 7.47253L79.5078 5.49231C76.5749 2.55934 72.8573 1.25165 68.215 0.625823C63.5727 -1.72591e-06 57.8469 0 50.4397 0V2.8022ZM79.3958 34.5604C79.3958 35.3036 79.691 36.0164 80.2165 36.5419C80.742 37.0674 81.4548 37.3626 82.198 37.3626C82.9411 37.3626 83.6539 37.0674 84.1794 36.5419C84.7049 36.0164 85.0002 35.3036 85.0002 34.5604H79.3958ZM50.4397 0C49.6965 0 48.9838 0.295229 48.4583 0.820743C47.9327 1.34626 47.6375 2.05901 47.6375 2.8022C47.6375 3.54539 47.9327 4.25814 48.4583 4.78365C48.9838 5.30917 49.6965 5.6044 50.4397 5.6044V0Z" fill="white"/>
</g>
<defs>
<clipPath id="clip0_2_498">
<rect width="85" height="85" fill="white"/>
</clipPath>
</defs>
</svg>
